<?xml version="1.0" encoding="UTF-8" standalone="no"?>
<!-- Created with Inkscape (http://www.inkscape.org/) -->

<svg
   xmlns:dc="http://purl.org/dc/elements/1.1/"
   xmlns:cc="http://creativecommons.org/ns#"
   xmlns:rdf="http://www.w3.org/1999/02/22-rdf-syntax-ns#"
   xmlns:svg="http://www.w3.org/2000/svg"
   xmlns="http://www.w3.org/2000/svg"
   xmlns:sodipodi="http://sodipodi.sourceforge.net/DTD/sodipodi-0.dtd"
   xmlns:inkscape="http://www.inkscape.org/namespaces/inkscape"
   width="136"
   height="40"
   id="svg4021"
   version="1.1"
   inkscape:version="0.47 r22583"
   sodipodi:docname="wikipedia-logo-textonly.svg">
  <defs
     id="defs4023">
    <inkscape:perspective
       sodipodi:type="inkscape:persp3d"
       inkscape:vp_x="0 : 526.18109 : 1"
       inkscape:vp_y="0 : 1000 : 0"
       inkscape:vp_z="744.09448 : 526.18109 : 1"
       inkscape:persp3d-origin="372.04724 : 350.78739 : 1"
       id="perspective4029" />
    <inkscape:perspective
       id="perspective3986"
       inkscape:persp3d-origin="0.5 : 0.33333333 : 1"
       inkscape:vp_z="1 : 0.5 : 1"
       inkscape:vp_y="0 : 1000 : 0"
       inkscape:vp_x="0 : 0.5 : 1"
       sodipodi:type="inkscape:persp3d" />
  </defs>
  <sodipodi:namedview
     id="base"
     pagecolor="#ffffff"
     bordercolor="#666666"
     borderopacity="1.0"
     inkscape:pageopacity="0.0"
     inkscape:pageshadow="2"
     inkscape:zoom="6.7553957"
     inkscape:cx="66.876094"
     inkscape:cy="17.371723"
     inkscape:document-units="px"
     inkscape:current-layer="layer1"
     showgrid="false"
     inkscape:window-width="1024"
     inkscape:window-height="571"
     inkscape:window-x="0"
     inkscape:window-y="1"
     inkscape:window-maximized="1" />
  <metadata
     id="metadata4026">
    <rdf:RDF>
      <cc:Work
         rdf:about="">
        <dc:format>image/svg+xml</dc:format>
        <dc:type
           rdf:resource="http://purl.org/dc/dcmitype/StillImage" />
        <dc:title></dc:title>
      </cc:Work>
    </rdf:RDF>
  </metadata>
  <g
     inkscape:label="Layer 1"
     inkscape:groupmode="layer"
     id="layer1"
     transform="translate(-315.5705,-509.73391)">
    <g
       transform="translate(315.85117,396.7473)"
       id="The_Free_Encyclopedia">
      <path
         id="path3861"
         d="m 17.767,142.329 c 0,0.183 0.083,0.048 0.127,0 0.793,-0.884 1.416,-1.054 2.054,-1.054 0.455,0 0.861,0.156 1.079,0.441 0.303,0.396 0.351,1.027 0.351,1.742 v 1.938 c 0,1.065 0.143,1.119 0.871,1.184 0.065,0.078 0.065,0.352 0,0.43 -0.559,-0.014 -0.845,-0.025 -1.378,-0.025 -0.52,0 -0.78,0.013 -1.326,0.025 -0.065,-0.078 -0.065,-0.352 0,-0.43 0.676,-0.064 0.806,-0.117 0.806,-1.184 v -1.977 c 0,-0.39 -0.026,-0.743 -0.156,-1.001 -0.151,-0.298 -0.424,-0.468 -0.689,-0.468 -0.512,0 -1.014,0.281 -1.508,0.767 -0.104,0.113 -0.221,0.273 -0.221,0.548 v 2.131 c 0,1.08 0.117,1.131 0.777,1.184 0.078,0.078 0.078,0.352 0,0.43 -0.547,-0.014 -0.777,-0.025 -1.285,-0.025 -0.559,0 -0.892,0.013 -1.427,0.025 -0.078,-0.078 -0.078,-0.352 0,-0.43 0.754,-0.053 0.907,-0.104 0.907,-1.184 v -5.682 c 0,-0.299 0,-0.598 -0.91,-0.598 h -1.651 c -0.468,0 -0.598,0.234 -0.598,0.676 v 5.604 c 0,1.08 0.221,1.145 1.261,1.184 0.078,0.078 0.078,0.352 0,0.43 -0.65,-0.014 -1.105,-0.025 -1.807,-0.025 -0.715,0 -1.183,0.013 -1.82,0.025 -0.078,-0.078 -0.078,-0.352 0,-0.43 1.04,-0.039 1.261,-0.104 1.261,-1.184 v -5.643 c 0,-0.402 -0.13,-0.637 -0.598,-0.637 h -1.092 c -0.715,0 -0.884,0.156 -1.144,1.195 l -0.39,-0.064 c 0.156,-0.688 0.234,-1.365 0.286,-2.002 l 0.351,0.052 c 0,0.078 0,0.3 0.273,0.3 h 5.174 c 1.099,0 1.261,-0.098 2.314,-0.688 0.104,0 0.156,0.039 0.156,0.13 0,0 -0.037,0.455 -0.039,1.3 l -0.009,2.99 z" />
      <path
         id="path3863"
         d="m 27.684,145.982 c -0.52,0.676 -1.222,1.131 -2.21,1.131 -0.936,0 -1.547,-0.312 -1.989,-0.832 -0.429,-0.494 -0.611,-1.196 -0.611,-1.924 0,-1.978 1.469,-3.057 2.6,-3.057 1.807,0 2.197,1.172 2.197,2.264 0,0.143 -0.091,0.221 -0.247,0.221 l -3.458,-0.025 c 0,0.754 0.156,1.352 0.416,1.78 0.403,0.663 0.949,0.937 1.417,0.937 0.754,0 1.131,-0.207 1.612,-0.701 0.156,0.011 0.234,0.078 0.273,0.206 z m -1.326,-2.705 c 0.143,-0.002 0.195,-0.064 0.195,-0.182 0,-1.093 -0.585,-1.365 -1.079,-1.365 -0.312,0 -1.222,0.117 -1.469,1.586 l 2.353,-0.039 z" />
      <path
         id="path3865"
         d="m 33.089,142.784 v 2.612 c 0,1.08 0.221,1.145 1.131,1.184 0.078,0.078 0.078,0.352 0,0.43 -0.65,-0.014 -1.027,-0.025 -1.677,-0.025 -0.663,0 -1.053,0.013 -1.69,0.025 -0.078,-0.078 -0.078,-0.352 0,-0.43 0.91,-0.039 1.131,-0.104 1.131,-1.184 v -5.213 c 0,-1.078 -0.221,-1.145 -1.131,-1.184 -0.078,-0.078 -0.078,-0.352 0,-0.43 0.65,0.014 1.677,0.025 1.677,0.025 h 3.319 c 0.308,0 0.384,-0.008 0.611,-0.052 0.031,0 0.046,0.009 0.052,0.039 0.018,0.099 0.214,1.353 0.282,1.885 l -0.403,0.065 c -0.286,-0.897 -0.494,-1.417 -1.469,-1.417 h -1.365 c -0.312,0 -0.468,0.13 -0.468,0.442 v 2.729 h 1.209 c 1.105,0 1.144,-0.169 1.183,-0.885 0.078,-0.077 0.351,-0.077 0.429,0 -0.013,0.391 -0.026,0.677 -0.026,1.119 0,0.44 0.013,0.688 0.026,1.144 -0.078,0.078 -0.351,0.078 -0.429,0 -0.039,-0.585 -0.078,-0.884 -1.183,-0.884 h -1.209 v 0.005 z" />
      <path
         id="path3867"
         d="m 37.327,141.979 c -0.052,-0.078 -0.052,-0.285 -0.026,-0.363 0.897,-0.117 1.417,-0.234 1.781,-0.377 0.104,0 0.169,0.039 0.169,0.091 0,0 -0.065,0.624 -0.065,1.04 0,0.064 0.039,0.13 0.117,-0.014 0.299,-0.506 0.832,-1.078 1.443,-1.078 0.546,0 0.78,0.375 0.78,0.623 0,0.326 -0.299,0.649 -0.611,0.649 -0.273,0 -0.403,-0.247 -0.533,-0.377 -0.078,-0.077 -0.182,-0.091 -0.273,-0.091 -0.156,0 -0.455,0.43 -0.598,0.637 -0.156,0.234 -0.312,0.533 -0.312,0.871 v 1.809 c 0,1.078 0.156,1.117 1.066,1.183 0.078,0.078 0.078,0.353 0,0.43 -0.559,-0.014 -1.04,-0.026 -1.573,-0.026 -0.52,0 -0.936,0.014 -1.482,0.026 -0.078,-0.077 -0.078,-0.352 0,-0.43 0.806,-0.052 0.962,-0.104 0.962,-1.183 v -2.535 c 0,-0.718 -0.143,-0.821 -0.845,-0.885 z" />
      <path
         id="path3869"
         d="m 46.843,145.982 c -0.52,0.676 -1.222,1.131 -2.21,1.131 -0.936,0 -1.547,-0.312 -1.989,-0.832 -0.429,-0.494 -0.611,-1.196 -0.611,-1.924 0,-1.978 1.469,-3.057 2.6,-3.057 1.807,0 2.197,1.172 2.197,2.264 0,0.143 -0.091,0.221 -0.247,0.221 l -3.458,-0.025 c 0,0.754 0.156,1.352 0.416,1.78 0.403,0.663 0.949,0.937 1.417,0.937 0.754,0 1.131,-0.207 1.612,-0.701 0.156,0.011 0.234,0.078 0.273,0.206 z m -1.326,-2.705 c 0.143,-0.002 0.195,-0.064 0.195,-0.182 0,-1.093 -0.585,-1.365 -1.079,-1.365 -0.312,0 -1.222,0.117 -1.469,1.586 l 2.353,-0.039 z" />
      <path
         id="path3871"
         d="m 52.693,145.982 c -0.52,0.676 -1.222,1.131 -2.21,1.131 -0.936,0 -1.547,-0.312 -1.989,-0.832 -0.429,-0.494 -0.611,-1.196 -0.611,-1.924 0,-1.978 1.469,-3.057 2.6,-3.057 1.807,0 2.197,1.172 2.197,2.264 0,0.143 -0.091,0.221 -0.247,0.221 l -3.458,-0.025 c 0,0.754 0.156,1.352 0.416,1.78 0.403,0.663 0.949,0.937 1.417,0.937 0.754,0 1.131,-0.207 1.612,-0.701 0.156,0.011 0.234,0.078 0.273,0.206 z m -1.326,-2.705 c 0.143,-0.002 0.195,-0.064 0.195,-0.182 0,-1.093 -0.585,-1.365 -1.079,-1.365 -0.312,0 -1.222,0.117 -1.469,1.586 l 2.353,-0.039 z" />
      <path
         id="path3873"
         d="m 60.465,141.406 c 0.078,-0.078 0.351,-0.078 0.429,0 -0.013,0.39 -0.026,0.676 -0.026,1.117 0,0.441 0.013,0.688 0.026,1.145 -0.078,0.078 -0.351,0.078 -0.429,0 -0.039,-0.585 -0.078,-0.884 -1.183,-0.884 h -1.183 v 3.133 c 0,0.353 0.182,0.56 0.468,0.56 h 1.768 c 0.988,0 1.443,-0.768 1.703,-1.703 0.17,-0.041 0.32,-0.012 0.455,0.064 -0.104,0.663 -0.299,1.521 -0.481,2.172 0,0 -1.04,-0.025 -1.664,-0.025 h -2.795 c 0,0 -1.053,0.013 -1.69,0.025 -0.078,-0.078 -0.078,-0.352 0,-0.43 0.91,-0.039 1.131,-0.104 1.131,-1.184 v -5.213 c 0,-1.078 -0.221,-1.145 -1.131,-1.184 -0.078,-0.078 -0.078,-0.352 0,-0.43 0.65,0.014 1.677,0.025 1.677,0.025 h 3.315 c 0.312,0 0.416,-0.013 0.637,-0.052 0.039,0 0.052,0.013 0.052,0.039 0.026,0.104 0.221,1.353 0.286,1.885 -0.127,0.062 -0.268,0.089 -0.429,0.065 -0.286,-0.897 -0.494,-1.417 -1.469,-1.417 h -1.365 c -0.312,0 -0.468,0.26 -0.468,0.571 v 2.601 h 1.183 c 1.105,0.004 1.144,-0.165 1.183,-0.88 z" />
      <path
         id="path3875"
         d="m 67.264,141.275 c 0.455,0 0.857,0.156 1.078,0.441 0.301,0.403 0.352,1.027 0.352,1.742 v 1.938 c 0,1.065 0.144,1.119 0.871,1.184 0.064,0.078 0.064,0.352 0,0.43 -0.559,-0.014 -0.846,-0.025 -1.377,-0.025 -0.521,0 -0.78,0.013 -1.327,0.025 -0.065,-0.078 -0.065,-0.352 0,-0.43 0.676,-0.064 0.806,-0.117 0.806,-1.184 v -1.977 c 0,-0.39 -0.026,-0.74 -0.156,-1.001 -0.156,-0.299 -0.429,-0.468 -0.689,-0.468 -0.507,0 -1.014,0.285 -1.508,0.767 -0.104,0.117 -0.221,0.273 -0.221,0.548 v 2.131 c 0,1.065 0.117,1.119 0.78,1.184 0.078,0.078 0.078,0.352 0,0.43 -0.546,-0.014 -0.78,-0.025 -1.287,-0.025 -0.559,0 -0.897,0.013 -1.43,0.025 -0.078,-0.078 -0.078,-0.352 0,-0.43 0.78,-0.064 0.91,-0.117 0.91,-1.184 v -2.535 c 0,-0.754 -0.143,-0.818 -0.845,-0.883 -0.026,-0.078 -0.052,-0.287 -0.026,-0.364 0.897,-0.117 1.43,-0.234 1.794,-0.378 0.104,0 0.156,0.039 0.156,0.104 0,0 -0.065,0.599 -0.065,0.988 0,0.183 0.091,0.052 0.13,0 0.792,-0.883 1.416,-1.053 2.054,-1.053 z" />
      <path
         id="path3877"
         d="m 72.789,147.113 c -1.639,0 -2.574,-1.157 -2.574,-2.834 0,-1.846 1.379,-3.004 2.666,-3.004 1.248,0 1.988,0.521 1.988,1.235 0,0.402 -0.363,0.571 -0.637,0.571 -0.274,0 -0.453,-0.117 -0.494,-0.468 -0.053,-0.455 -0.156,-0.91 -0.924,-0.91 -0.857,0 -1.482,0.858 -1.482,2.288 0,1.521 0.795,2.482 1.742,2.482 0.561,0 1.119,-0.285 1.561,-0.857 0.117,0.013 0.221,0.064 0.273,0.183 -0.65,1.067 -1.34,1.314 -2.119,1.314 z" />
      <path
         id="path3879"
         d="m 76.625,150 c -0.352,0 -0.611,-0.209 -0.611,-0.48 0,-0.17 0.195,-0.561 0.572,-0.561 0.143,0 0.193,0.039 0.377,0.039 0.324,0 0.506,-0.116 0.648,-0.377 0.195,-0.402 0.354,-0.762 0.508,-1.195 0.131,-0.363 -0.068,-0.961 -0.182,-1.223 l -1.472,-3.419 c -0.354,-0.828 -0.459,-0.923 -1.024,-0.976 -0.078,-0.078 -0.078,-0.352 0,-0.43 0.26,0.014 0.61,0.025 1.053,0.025 0.469,0 0.988,-0.012 1.469,-0.025 0.078,0.078 0.078,0.352 0,0.43 -0.797,0.063 -0.66,0.297 -0.426,0.846 l 1.152,2.703 c 0.11,0.259 0.221,0.224 0.311,0.014 l 1.291,-2.977 c 0.203,-0.472 -0.215,-0.547 -0.625,-0.586 -0.078,-0.078 -0.078,-0.352 0,-0.43 0.48,0.014 0.729,0.025 1.184,0.025 0.363,0 0.599,-0.012 0.922,-0.025 0.078,0.078 0.078,0.352 0,0.43 -0.479,0.039 -0.869,0.455 -1.053,0.832 -0.688,1.456 -1.256,2.797 -2.301,5.305 -0.16,0.385 -0.33,0.757 -0.533,1.117 -0.467,0.834 -0.989,0.938 -1.26,0.938 z" />
      <path
         id="path3881"
         d="m 84.826,147.113 c -1.637,0 -2.572,-1.157 -2.572,-2.834 0,-1.846 1.377,-3.004 2.664,-3.004 1.248,0 1.988,0.521 1.988,1.235 0,0.402 -0.363,0.571 -0.637,0.571 -0.271,0 -0.453,-0.117 -0.494,-0.468 -0.051,-0.455 -0.154,-0.91 -0.922,-0.91 -0.859,0 -1.482,0.858 -1.482,2.288 0,1.521 0.793,2.482 1.742,2.482 0.559,0 1.117,-0.285 1.561,-0.857 0.117,0.013 0.221,0.064 0.271,0.183 -0.648,1.067 -1.338,1.314 -2.119,1.314 z" />
      <path
         id="path3883"
         d="m 88.455,139.716 c 0,-1.092 -0.156,-1.026 -0.832,-1.065 -0.078,-0.077 -0.105,-0.285 -0.078,-0.391 0.52,-0.039 1.494,-0.221 1.82,-0.351 0.115,0 0.168,0.039 0.168,0.13 0,0 -0.053,0.52 -0.053,1.365 v 5.992 c 0,1.08 0.145,1.145 0.938,1.184 0.078,0.078 0.078,0.352 0,0.43 -0.561,-0.014 -0.885,-0.025 -1.443,-0.025 -0.572,0 -0.91,0.013 -1.457,0.025 -0.078,-0.078 -0.078,-0.352 0,-0.43 0.793,-0.039 0.938,-0.104 0.938,-1.184 l -0.001,-5.68 0,0 z" />
      <path
         id="path3885"
         d="m 93.887,141.275 c 2.016,0 2.73,1.574 2.73,2.926 0,1.3 -0.818,2.912 -2.756,2.912 -1.834,0 -2.73,-1.469 -2.73,-2.795 0,-1.651 1.002,-3.043 2.756,-3.043 z m -1.637,2.745 c 0,1.002 0.494,2.666 1.846,2.666 0.611,0 1.404,-0.353 1.404,-2.067 0,-1.911 -0.637,-2.912 -1.756,-2.912 -1.092,-0.002 -1.494,1.182 -1.494,2.313 z" />
      <path
         id="path3887"
         d="m 101.051,141.275 c 1.326,0 2.301,1.273 2.301,2.652 0,1.053 -0.352,1.858 -0.963,2.457 -0.533,0.508 -1.182,0.729 -1.91,0.729 -0.41,0 -0.812,-0.072 -1.131,-0.201 -0.133,-0.055 -0.182,-0.071 -0.182,0.098 v 1.403 c 0,1.079 0.143,1.132 1.064,1.185 0.078,0.077 0.078,0.351 0,0.428 C 99.672,150.014 99.27,150 98.658,150 c -0.572,0 -0.91,0.014 -1.455,0.025 -0.078,-0.078 -0.078,-0.352 0,-0.43 0.793,-0.039 0.936,-0.104 0.936,-1.184 v -5.551 c 0,-0.741 -0.143,-0.819 -0.846,-0.885 -0.025,-0.078 -0.053,-0.285 -0.025,-0.363 0.896,-0.117 1.404,-0.234 1.769,-0.377 0.104,0 0.17,0.039 0.17,0.091 0,0 -0.054,0.364 -0.054,0.832 0,0.093 0.076,0.081 0.117,0.039 0.584,-0.595 1.298,-0.922 1.781,-0.922 z m -1.885,1.925 v 2.418 c 0,0.47 0.051,0.545 0.311,0.778 0.234,0.209 0.689,0.274 0.924,0.274 1.455,0 1.832,-1.326 1.832,-2.394 0,-1.469 -0.715,-2.404 -1.547,-2.404 -0.379,0 -0.91,0.338 -1.312,0.754 -0.167,0.174 -0.208,0.302 -0.208,0.574 z" />
      <path
         id="path3889"
         d="m 109.176,145.982 c -0.52,0.676 -1.223,1.131 -2.211,1.131 -0.936,0 -1.547,-0.312 -1.988,-0.832 -0.43,-0.494 -0.61,-1.196 -0.61,-1.924 0,-1.978 1.469,-3.057 2.6,-3.057 1.81,0 2.197,1.172 2.197,2.264 0,0.143 -0.09,0.221 -0.246,0.221 l -3.459,-0.025 c 0,0.754 0.155,1.352 0.416,1.78 0.403,0.663 0.949,0.937 1.418,0.937 0.754,0 1.131,-0.207 1.61,-0.701 0.156,0.011 0.234,0.078 0.273,0.206 z m -1.326,-2.705 c 0.144,-0.002 0.195,-0.064 0.195,-0.182 0,-1.093 -0.586,-1.365 -1.08,-1.365 -0.311,0 -1.221,0.117 -1.469,1.586 l 2.354,-0.039 z" />
      <path
         id="path3891"
         d="m 112.426,147.113 c -1.404,0 -2.211,-1.17 -2.211,-2.77 0,-0.963 0.338,-1.729 0.898,-2.287 0.52,-0.494 1.092,-0.781 1.949,-0.781 0.43,0 0.963,0.222 1.014,0.222 0.092,0 0.117,-0.026 0.117,-0.117 v -1.664 c 0,-1.092 -0.156,-1.026 -0.832,-1.065 -0.078,-0.077 -0.104,-0.285 -0.078,-0.391 0.52,-0.039 1.482,-0.221 1.807,-0.351 0.117,0 0.17,0.039 0.17,0.13 0,0 -0.053,0.52 -0.053,1.365 v 5.889 c 0,0.639 0.117,0.885 0.949,0.949 0.078,0.078 0.078,0.273 0,0.352 -0.793,0.092 -1.377,0.285 -1.664,0.521 -0.104,0.026 -0.195,0.038 -0.299,0 0,0 0.014,-0.638 0.014,-0.767 0,-0.092 -0.094,-0.068 -0.156,-0.019 -0.637,0.525 -1.117,0.784 -1.625,0.784 z m 1.767,-4.213 c 0,-0.402 -0.039,-0.493 -0.221,-0.701 -0.261,-0.299 -0.586,-0.469 -1.054,-0.469 -0.26,0 -0.808,0.039 -1.209,0.649 -0.194,0.272 -0.377,0.793 -0.377,1.729 0,1.625 0.729,2.392 1.431,2.392 0.323,0 0.739,-0.208 1.223,-0.624 0.184,-0.158 0.207,-0.26 0.207,-0.507 V 142.9 z" />
      <path
         id="path3893"
         d="m 119.51,146.58 c 0.078,0.078 0.078,0.352 0,0.43 -0.559,-0.014 -0.885,-0.025 -1.443,-0.025 -0.571,0 -0.909,0.013 -1.457,0.025 -0.075,-0.078 -0.075,-0.352 0,-0.43 0.793,-0.064 0.938,-0.104 0.938,-1.184 v -2.535 c 0,-0.74 -0.137,-0.816 -0.846,-0.883 -0.025,-0.078 -0.054,-0.287 -0.025,-0.364 0.896,-0.117 1.41,-0.234 1.781,-0.378 0.104,0 0.168,0.039 0.168,0.092 0,0 -0.051,0.832 -0.051,1.479 v 2.592 c -0.001,1.078 0.142,1.128 0.935,1.181 z m -1.444,-8.008 c 0.352,0 0.623,0.363 0.623,0.676 0,0.273 -0.312,0.624 -0.676,0.624 -0.312,0 -0.623,-0.338 -0.623,-0.677 0.001,-0.311 0.364,-0.623 0.676,-0.623 z" />
      <path
         id="path3895"
         d="m 123.475,146.359 -0.26,0.207 c -0.572,0.442 -0.82,0.547 -1.418,0.547 -0.91,0 -1.639,-0.377 -1.639,-1.404 0,-0.884 0.898,-1.572 2.146,-1.885 l 1.116,-0.273 c 0.039,-0.013 0.078,-0.064 0.078,-0.154 0,-1.471 -0.61,-1.69 -1.054,-1.69 -0.493,0 -1.079,0.144 -1.079,0.546 0,0.145 0.014,0.223 0.026,0.262 0.025,0.051 0.039,0.143 0.039,0.232 0,0.169 -0.195,0.429 -0.572,0.429 -0.299,0 -0.455,-0.143 -0.455,-0.455 0,-0.7 1.078,-1.442 2.146,-1.442 0.949,0 1.964,0.352 1.964,2.197 v 1.938 c 0,0.599 0.014,1.105 0.52,1.105 0.273,0 0.328,-0.209 0.404,-0.209 0.051,0 0.168,0.131 0.168,0.222 0,0.064 -0.467,0.585 -1.104,0.585 -0.694,0 -0.924,-0.48 -1.002,-0.754 h -0.024 v -0.004 z m -1.002,-2.13 c -0.959,0.254 -1.234,0.845 -1.234,1.43 0,0.402 0.285,0.923 0.937,0.923 0.363,0 0.808,-0.286 1.146,-0.56 0.104,-0.078 0.182,-0.168 0.182,-0.338 v -1.729 l -1.031,0.274 z" />
    </g>
    <g
       transform="translate(315.85117,398.7473)"
       id="Wikipedia">
      <path
         id="path3898"
         d="m 18.757,118.893 c 0,0 -0.367,-0.746 -0.492,-0.994 -0.834,-1.653 -0.816,-1.741 -1.659,-1.852 -0.236,-0.031 -0.358,-0.061 -0.358,-0.178 v -0.523 l 0.071,-0.051 c 1.523,-0.002 4.912,-0.002 4.912,-0.002 l 0.13,0.043 v 0.521 c 0,0.119 -0.085,0.18 -0.258,0.18 l -0.356,0.051 c -0.9,0.07 -0.753,0.438 -0.155,1.629 l 5.677,11.615 0.194,0.053 5.04,-11.961 c 0.175,-0.482 0.148,-0.824 -0.077,-1.025 -0.226,-0.196 -0.385,-0.312 -0.969,-0.336 l -0.473,-0.024 c -0.058,0 -0.113,-0.021 -0.166,-0.06 -0.052,-0.037 -0.079,-0.086 -0.079,-0.145 v -0.498 l 0.072,-0.051 c 1.42,0 5.694,0 5.694,0 l 0.058,0.051 v 0.498 c 0,0.135 -0.077,0.203 -0.229,0.203 -0.746,0.033 -1.299,0.195 -1.657,0.484 -0.359,0.291 -0.639,0.692 -0.84,1.213 0,0 -4.635,10.609 -6.221,14.135 -0.607,1.156 -1.204,1.05 -1.729,-0.033 -1.109,-2.284 -4.232,-9.213 -4.232,-9.213 l -1.898,-3.73 z" />
      <path
         id="path3900"
         d="m 27.853,115.287 c 0,0 -3.203,-0.01 -4.629,0 l -0.071,0.051 v 0.496 c 0,0.061 0.026,0.109 0.078,0.146 0.053,0.039 0.107,0.059 0.165,0.059 l 0.229,0.025 c 0.583,0.024 0.851,0.177 0.931,0.273 0.139,0.17 0.208,0.354 -0.129,1.089 l -5.98,11.927 -0.157,-0.041 c 0,0 -4.283,-9.031 -5.523,-12.052 -0.129,-0.313 -0.187,-0.545 -0.187,-0.688 0,-0.307 0.277,-0.473 0.831,-0.496 l 0.646,-0.027 c 0.171,0 0.258,-0.066 0.258,-0.203 v -0.496 l -0.058,-0.051 c 0,0 -5.13,-0.006 -6.19,0 l -0.058,0.051 v 0.521 c 0,0.094 0.119,0.152 0.358,0.178 0.651,0.035 1.079,0.139 1.285,0.312 0.205,0.175 0.422,0.617 0.71,1.306 1.557,3.74 4.865,10.414 6.476,14.215 0.464,1.038 1.047,1.199 1.755,-0.032 1.226,-2.274 4.55,-9.218 4.55,-9.218 l 2.618,-4.896 c 0.305,-0.517 0.599,-0.978 0.748,-1.193 0.273,-0.393 0.426,-0.467 1.172,-0.502 0.152,0 0.229,-0.068 0.229,-0.205 v -0.496 l -0.057,-0.053 z" />
      <path
         style="fill:#ffffff"
         id="path3902"
         d="m 21.535,126.689 c -0.02,0.066 0.188,0.293 0.253,0.313 l 0.155,-0.098 c 0.064,0.02 0.203,-0.041 0.223,-0.105 l 0.027,-0.264 -0.279,-1.304 c -0.051,-0.067 -0.09,-0.018 -0.107,0.043 l -0.272,1.415 z" />
      <path
         id="path3904"
         d="m 37.592,130.77 c 0,0.572 0.26,0.91 1.092,0.988 l 0.546,0.053 c 0.078,0 0.156,0.051 0.156,0.155 v 0.546 l -0.026,0.053 c 0,0 -1.976,-0.053 -2.782,-0.053 -0.728,0 -2.756,0.053 -2.756,0.053 l -0.052,-0.053 v -0.546 c 0,-0.104 0.078,-0.155 0.182,-0.155 l 0.52,-0.053 c 0.858,-0.078 1.118,-0.494 1.118,-0.988 v -8.658 c 0,-0.571 -0.313,-0.729 -1.118,-0.805 l -0.52,-0.054 c -0.104,0 -0.182,-0.024 -0.182,-0.104 v -0.599 l 0.026,-0.052 c 0,0 2.054,0.052 2.86,0.052 0.702,0 2.704,-0.052 2.704,-0.052 l 0.026,0.052 v 0.572 c 0,0.078 -0.052,0.13 -0.156,0.13 l -0.546,0.053 c -0.806,0.077 -1.092,0.286 -1.092,0.807 v 8.658 z" />
      <path
         id="path3906"
         d="m 45.265,130.77 c 0,0.572 0.338,0.858 1.092,0.988 l 0.286,0.053 c 0.078,0.025 0.156,0.051 0.156,0.155 v 0.546 l -0.026,0.053 c 0,0 -1.638,-0.053 -2.418,-0.053 -0.728,0 -2.86,0.053 -2.86,0.053 l -0.052,-0.053 v -0.546 c 0,-0.104 0.078,-0.155 0.182,-0.155 l 0.52,-0.053 c 0.78,-0.078 1.118,-0.494 1.118,-0.988 v -8.658 c 0,-0.571 -0.286,-0.729 -1.118,-0.805 l -0.52,-0.054 c -0.104,0 -0.182,-0.024 -0.182,-0.104 v -0.599 l 0.026,-0.052 c 0,0 2.132,0.052 2.938,0.052 0.729,0 2.366,-0.052 2.366,-0.052 l 0.026,0.052 v 0.572 c 0,0.078 -0.052,0.104 -0.156,0.13 l -0.286,0.053 c -0.806,0.155 -1.092,0.286 -1.092,0.807 v 3.926 c 0.858,0 1.352,-0.441 2.496,-1.664 1.04,-1.145 1.846,-2.105 1.846,-2.6 0,-0.209 -0.234,-0.442 -0.754,-0.521 -0.104,-0.025 -0.156,-0.052 -0.156,-0.13 v -0.599 l 0.026,-0.025 c 0,0 2.106,0.052 2.86,0.052 0.676,0 1.82,-0.052 1.82,-0.052 l 0.078,0.025 v 0.599 c 0,0.078 -0.078,0.13 -0.208,0.13 -1.014,0.078 -1.716,0.13 -2.652,1.196 l -2.236,2.573 c -0.442,0.469 -0.598,0.754 -0.598,0.963 0,0.156 0.104,0.285 0.234,0.441 l 3.926,4.732 c 0.312,0.363 0.936,0.52 1.456,0.623 l 0.13,0.025 c 0.078,0.026 0.182,0.078 0.182,0.156 v 0.546 l -0.078,0.026 c 0,0 -1.378,-0.026 -2.106,-0.026 -0.65,0 -1.586,0.026 -1.586,0.026 l -0.026,-0.026 v -0.312 c 0,-0.339 -0.026,-0.623 -0.39,-1.039 l -2.886,-3.589 c -0.39,-0.521 -0.806,-0.649 -1.378,-0.649 v 3.851 l 0,0 z" />
      <path
         id="path3908"
         d="m 59.282,130.77 c 0,0.572 0.26,0.91 1.092,0.988 l 0.546,0.053 c 0.078,0 0.156,0.051 0.156,0.155 v 0.546 l -0.026,0.053 c 0,0 -1.976,-0.053 -2.782,-0.053 -0.728,0 -2.756,0.053 -2.756,0.053 l -0.052,-0.053 v -0.546 c 0,-0.104 0.078,-0.155 0.182,-0.155 l 0.52,-0.053 c 0.858,-0.078 1.118,-0.494 1.118,-0.988 v -8.658 c 0,-0.571 -0.312,-0.729 -1.118,-0.805 l -0.52,-0.054 c -0.104,0 -0.182,-0.024 -0.182,-0.104 v -0.599 l 0.026,-0.052 c 0,0 2.054,0.052 2.86,0.052 0.702,0 2.704,-0.052 2.704,-0.052 l 0.026,0.052 v 0.572 c 0,0.078 -0.052,0.13 -0.156,0.13 l -0.546,0.053 c -0.806,0.077 -1.092,0.286 -1.092,0.807 v 8.658 z" />
      <path
         id="path3910"
         d="m 64.9,122.163 c 0,-0.806 -0.338,-0.832 -1.56,-0.91 -0.156,0 -0.182,-0.077 -0.182,-0.13 v -0.598 l 0.052,-0.026 c 0.39,0 1.924,0.052 2.678,0.052 0.728,0 1.768,-0.052 2.73,-0.052 3.69,0 4.366,1.819 4.366,3.173 0,1.561 -0.754,4.004 -4.444,4.004 -0.65,0 -1.17,-0.053 -1.639,-0.26 v 3.482 c 0,0.572 0.312,0.703 1.145,0.832 l 0.521,0.078 c 0.104,0.026 0.182,0.053 0.182,0.156 v 0.546 l -0.025,0.052 c 0,0 -2.08,-0.052 -2.886,-0.052 -0.728,0 -2.678,0.052 -2.678,0.052 l -0.026,-0.052 v -0.546 c 0,-0.104 0.052,-0.13 0.156,-0.156 l 0.546,-0.078 c 0.806,-0.104 1.066,-0.338 1.066,-0.832 l -0.002,-8.735 0,0 z m 2.002,4.525 c 0.52,0.209 1.17,0.234 1.69,0.234 1.561,0 2.312,-0.938 2.312,-2.938 0,-2.236 -1.014,-2.73 -2.442,-2.73 -1.249,0 -1.561,0.234 -1.561,0.91 l 0.001,4.524 0,0 z" />
      <path
         id="path3912"
         d="m 77.462,132.512 c -0.78,0 -2.573,0.053 -2.573,0.053 l -0.027,-0.053 v -0.572 c 0,-0.051 0.027,-0.129 0.156,-0.129 l 0.599,-0.053 c 0.807,-0.078 1.041,-0.598 1.041,-1.117 v -8.58 c 0,-0.6 -0.313,-0.703 -1.041,-0.754 l -0.599,-0.054 c -0.156,-0.024 -0.156,-0.077 -0.156,-0.104 v -0.599 l 0.027,-0.052 c 0,0 2.027,0.052 2.807,0.052 h 3.822 c 0.78,0 2.627,-0.052 2.627,-0.052 l 0.053,0.052 c 0.025,1.118 0.207,2.134 0.39,3.121 l -0.649,0.104 c -0.285,-0.963 -0.779,-2.34 -2.443,-2.34 h -2.08 c -0.494,0 -0.754,0.182 -0.754,0.623 v 3.771 h 1.949 c 0.729,0 0.91,-0.312 1.015,-0.832 l 0.155,-0.546 c 0,-0.078 0.053,-0.131 0.156,-0.131 h 0.441 c 0.053,0 0.053,0.027 0.053,0.078 -0.053,0.572 -0.156,1.301 -0.156,1.925 0,0.649 0.104,1.196 0.156,1.794 l -0.053,0.053 h -0.441 c -0.129,0 -0.183,-0.053 -0.183,-0.131 l -0.13,-0.571 c -0.104,-0.521 -0.338,-0.807 -1.016,-0.807 H 78.66 v 3.979 c 0,0.493 0.284,0.987 0.754,0.987 h 2.47 c 1.326,0 2.055,-0.832 2.366,-2.185 l 0.649,0.078 -0.521,2.989 -0.052,0.052 c 0,0 -1.534,-0.052 -2.314,-0.052 l -4.55,0.003 0,0 z" />
      <path
         id="path3914"
         d="m 87.24,131.811 0.598,-0.053 c 0.781,-0.078 1.041,-0.312 1.041,-1.117 v -8.58 c 0,-0.678 -0.184,-0.678 -1.041,-0.754 l -0.57,-0.054 c -0.104,0 -0.184,-0.052 -0.184,-0.13 v -0.572 l 0.025,-0.052 c 0,0 2.289,0.052 2.758,0.052 0.492,0 2.756,-0.052 3.432,-0.052 4.342,0 6.475,2.704 6.475,6.162 0,4.551 -3.225,5.901 -6.11,5.901 -2.08,0 -2.989,-0.052 -3.795,-0.052 -0.781,0 -2.757,0.052 -2.757,0.052 l -0.026,-0.052 v -0.546 c -0.002,-0.075 0.051,-0.153 0.154,-0.153 z m 5.799,0 c 2.859,0 4.473,-1.065 4.473,-4.707 0,-2.703 -0.599,-5.851 -4.967,-5.851 -1.014,0 -1.664,0.156 -1.664,0.808 v 8.58 c 0,0.726 0.181,1.17 2.158,1.17 z" />
      <path
         id="path3916"
         d="m 105.912,130.77 c 0,0.572 0.26,0.91 1.092,0.988 l 0.546,0.053 c 0.078,0 0.156,0.051 0.156,0.155 v 0.546 l -0.026,0.053 c 0,0 -1.976,-0.053 -2.781,-0.053 -0.729,0 -2.756,0.053 -2.756,0.053 l -0.053,-0.053 v -0.546 c 0,-0.104 0.078,-0.155 0.182,-0.155 l 0.521,-0.053 c 0.857,-0.078 1.118,-0.494 1.118,-0.988 v -8.658 c 0,-0.571 -0.313,-0.729 -1.118,-0.805 l -0.521,-0.054 c -0.104,0 -0.182,-0.024 -0.182,-0.104 v -0.599 l 0.026,-0.052 c 0,0 2.054,0.052 2.858,0.052 0.702,0 2.705,-0.052 2.705,-0.052 l 0.025,0.052 v 0.572 c 0,0.078 -0.053,0.13 -0.156,0.13 l -0.546,0.053 c -0.806,0.077 -1.092,0.286 -1.092,0.807 l 0.002,8.658 0,0 z" />
      <path
         id="path3918"
         d="m 113.922,131.758 0.754,0.053 c 0.104,0 0.208,0.078 0.208,0.207 v 0.494 l -0.052,0.053 c 0,0 -2.834,-0.053 -3.458,-0.053 -0.677,0 -2.341,0.053 -2.341,0.053 l -0.053,-0.053 v -0.494 c 0,-0.129 0.078,-0.207 0.209,-0.207 1.145,-0.078 1.793,-0.287 2.521,-1.951 l 5.771,-13.521 c 0.285,-0.676 0.494,-0.937 0.885,-0.937 0.363,0 0.494,0.261 0.701,0.781 l 5.33,14.092 c 0.365,1.015 0.885,1.404 1.925,1.508 l 0.286,0.025 c 0.13,0 0.26,0.078 0.26,0.209 v 0.493 l -0.078,0.052 c 0,0 -2.002,-0.052 -3.016,-0.052 -0.91,0 -3.459,0.052 -3.459,0.052 l -0.025,-0.052 v -0.493 c 0,-0.131 0.052,-0.209 0.184,-0.209 l 0.728,-0.052 c 0.987,-0.077 1.353,-0.391 1.092,-1.118 l -1.586,-4.395 H 115.3 c -0.624,0 -0.78,0.104 -0.909,0.441 l -1.509,3.771 c -0.26,0.652 0.078,1.225 1.04,1.303 z m 6.37,-6.606 -2.522,-6.941 h -0.052 l -2.6,6.604 c -0.104,0.261 0.077,0.338 0.649,0.338 h 4.525 z" />
    </g>
  </g>
</svg>
